<?xml version="1.0" encoding="UTF-8"?>
<svg version="1.1" xmlns="http://www.w3.org/2000/svg" width="445" height="355" viewBox="0 0 445 355">
<path d="M0 0 C11.37154732 10.37532202 12.44292336 25.36034694 14.40234375 39.80078125 C15.32362349 46.44369304 16.43382707 53.05897911 17.50366211 59.67919922 C18.33075026 64.80283331 19.14729326 69.92758613 19.93383789 75.05761719 C21.5572427 85.63055534 23.19385385 96.20144502 24.83129883 106.7722168 C25.23403748 109.37339267 25.63638398 111.97462928 26.03833008 114.57592773 C26.62742015 118.38801328 27.21781679 122.19989429 27.80859375 126.01171875 C27.99779388 127.23639862 28.18699402 128.46107849 28.38192749 129.72286987 C29.20121859 134.99765176 30.03298078 140.2677421 30.95361328 145.52587891 C31.09565689 146.34119583 31.2377005 147.15651276 31.38404846 147.99653625 C31.63750988 149.43284974 31.89722328 150.86808649 32.16563416 152.30168152 C33.85659368 161.85466911 33.61258149 171.65061435 28.7109375 180.265625 C21.75251077 190.01486459 12.85824798 195.47252164 1.06411743 197.4434967 C0.2514743 197.56655685 -0.56116882 197.689617 -1.3984375 197.81640625 C-2.71009384 198.03030251 -2.71009384 198.03030251 -4.04824829 198.2485199 C-6.82212033 198.698084 -9.59832893 199.13060033 -12.375 199.5625 C-14.19679583 199.85499313 -16.01841231 200.14860559 -17.83984375 200.44335938 C-25.01940618 201.59886939 -32.19755501 202.75116394 -39.39794922 203.77026367 C-40.25957672 203.89598251 -41.12120422 204.02170135 -42.00894165 204.15122986 C-43.62861863 204.38668139 -45.24966593 204.61297081 -46.87216187 204.82814026 C-53.31543188 205.77751957 -57.3938514 208.22681232 -62.28466797 212.54492188 C-66.18837904 215.85635341 -70.35256941 218.85513073 -74.4375 221.9375 C-76.29124618 223.35170973 -78.14413164 224.76704851 -79.99609375 226.18359375 C-83.65063468 228.97427274 -87.31573356 231.74872765 -91 234.5 C-96.52797214 238.63009413 -102.01382408 242.81459103 -107.5 247 C-113.88446136 251.8707118 -120.28065975 256.72253585 -126.71484375 261.52734375 C-130.41281461 264.30052086 -134.08167092 267.11181748 -137.75463867 269.91796875 C-161.42966615 288 -161.42966615 288 -164 288 C-163.5083688 281.73170223 -161.88969338 276.20442022 -159.97265625 270.2265625 C-159.14364244 267.47650063 -158.51011526 264.82171864 -158 262 C-157.31828365 258.28316389 -156.34648119 254.78449741 -155.1875 251.1875 C-152.96117966 244.20723248 -151.30192733 237.12158432 -149.6628418 229.9831543 C-149.46086182 229.10828369 -149.25888184 228.23341309 -149.05078125 227.33203125 C-148.78261597 226.15217651 -148.78261597 226.15217651 -148.5090332 224.94848633 C-148 223 -148 223 -147 221 C-163.91374125 223.34754749 -180.78408956 225.95994768 -197.65270996 228.60845947 C-200.43626455 229.04516696 -203.2200289 229.48052808 -206.00380707 229.91580772 C-208.75495737 230.34609204 -211.5059938 230.77710222 -214.2570343 231.20808792 C-216.28498266 231.52548248 -218.31307975 231.84191411 -220.34118652 232.15829468 C-226.632287 233.14186691 -232.91864539 234.14680107 -239.19726562 235.20751953 C-240.32094543 235.39504288 -241.44462524 235.58256622 -242.60235596 235.77577209 C-244.66479431 236.12143373 -246.72609733 236.47398549 -248.78582764 236.83543396 C-260.68372455 238.81861095 -270.91933011 238.91202926 -281.48046875 232.4921875 C-290.06847761 226.30651948 -294.97511785 218.34751017 -296.76286316 207.93002319 C-297.01152786 206.35570867 -297.25452847 204.78049272 -297.49291992 203.20458984 C-297.62827148 202.33804779 -297.76362305 201.47150574 -297.90307617 200.57870483 C-298.3504254 197.70685042 -298.7904166 194.83391831 -299.23046875 191.9609375 C-299.54666693 189.92250276 -299.86335244 187.88414355 -300.18049622 185.84585571 C-301.01911245 180.44818384 -301.85164214 175.0495909 -302.68273926 169.65075684 C-303.66427148 163.28088567 -304.65214896 156.91199667 -305.63984871 150.54307938 C-306.45453709 145.28938076 -307.26769377 140.03545729 -308.07711792 134.78094482 C-309.69094816 124.3208338 -311.33736621 113.86738268 -313.04931641 103.42285156 C-313.37870537 101.40127145 -313.70799691 99.37967546 -314.03718567 97.35806274 C-314.65149915 93.58670487 -315.27677725 89.81739638 -315.90849304 86.04891968 C-320.32305194 59.25246587 -320.32305194 59.25246587 -312.45703125 47.7421875 C-301.60051379 34.67461728 -288.55514727 32.7093643 -272.55078125 30.29296875 C-270.94422552 30.04508006 -269.33776687 29.79656143 -267.73139954 29.54745483 C-263.4705842 28.88845132 -259.20850295 28.2380166 -254.94611359 27.58928299 C-250.53862881 26.91687895 -246.13241504 26.23624921 -241.72607422 25.55639648 C-233.26903813 24.25279995 -224.81076299 22.95743134 -216.35198975 21.66516113 C-210.67816499 20.79829115 -205.00502435 19.92698174 -199.33203125 19.0546875 C-197.63289413 18.7934554 -195.93375678 18.53222484 -194.23461914 18.27099609 C-193.07520309 18.09271271 -193.07520309 18.09271271 -191.8923645 17.91082764 C-189.63724995 17.56438192 -187.38199291 17.21887638 -185.12670898 16.87353516 C-174.81128122 15.29202771 -164.50760164 13.64240039 -154.20727539 11.96533203 C-141.51191268 9.90476377 -128.80134636 7.94380104 -116.09103394 5.97790527 C-104.45577026 4.17719103 -92.83237539 2.3311568 -81.22631836 0.34960938 C-72.5201622 -1.11849689 -63.78175296 -2.34412016 -55.03759766 -3.56225586 C-47.5859076 -4.60628553 -40.16040613 -5.73873405 -32.76611328 -7.13696289 C-20.3160306 -9.37332589 -10.27153647 -7.49684289 0 0 Z " fill="#E10110" transform="translate(360,36)"/>
<path d="M0 0 C2.97244259 2.27676454 4.83663696 4.3170349 6.3125 7.8125 C6.58835937 8.41835937 6.86421875 9.02421875 7.1484375 9.6484375 C9.45389489 15.67646829 9.66051548 21.68369685 9.75 28.0625 C9.77215576 28.92625244 9.79431152 29.79000488 9.81713867 30.67993164 C9.79839186 36.21559591 9.05676161 39.46941975 5.3125 43.8125 C-0.94431658 49.39190534 -8.94298848 50.09648629 -17 50.1875 C-17.6815918 50.20127686 -18.36318359 50.21505371 -19.06542969 50.22924805 C-23.45066199 50.18880382 -26.18974512 49.4580746 -29.6875 46.8125 C-37.24109905 38.11441625 -38.13203481 26.45905551 -38.12109375 15.44140625 C-37.49116765 10.16932201 -35.76365989 6.94115549 -32.125 3.125 C-23.80655928 -3.17993062 -9.15115295 -5.34238579 0 0 Z " fill="#F1EFF2" transform="translate(297.6875,125.1875)"/>
<path d="M0 0 C-1.39196134 11.25355244 -2.80380081 22.47954807 -4.87207031 33.63110352 C-6.08593815 40.25428972 -7.01103683 46.91097823 -7.9387207 53.5793457 C-8.80341859 59.75106195 -9.78303147 65.8865228 -11 72 C-12.87256417 72.50904657 -14.74819341 73.00682455 -16.625 73.5 C-17.66914063 73.7784375 -18.71328125 74.056875 -19.7890625 74.34375 C-22.95687418 74.99118596 -25.77741467 75.1161292 -29 75 C-29.556875 73.8140625 -30.11375 72.628125 -30.6875 71.40625 C-35.33874761 61.52761217 -40.08955715 51.71111592 -45.01171875 41.96484375 C-46.02568216 39.94894022 -47.02977544 37.92838445 -48.03125 35.90625 C-51.78435906 28.33800445 -55.6454916 20.86101288 -59.75 13.4765625 C-61 11 -61 11 -61 9 C-55.94997778 7.96409801 -51.12583611 7.89748328 -46 8 C-41.97342904 15.93736192 -38.03113499 23.91345508 -34.1640625 31.9296875 C-33.82820633 32.62567551 -33.49235016 33.32166351 -33.14631653 34.03874207 C-31.43340126 37.59010938 -29.72369173 41.14298728 -28.01733398 44.69750977 C-27.37749061 46.02622812 -26.73760007 47.35492377 -26.09765625 48.68359375 C-25.80005402 49.30583832 -25.50245178 49.92808289 -25.1958313 50.56918335 C-23.90011225 53.48490792 -23.90011225 53.48490792 -22 56 C-20.4096237 44.1936492 -18.88552413 32.37929536 -17.375 20.5625 C-17.14326499 18.75194854 -16.91149437 16.94140164 -16.6796875 15.13085938 C-16.11938241 10.75395852 -15.55955471 6.37699685 -15 2 C-13.06302033 1.66365624 -11.12539514 1.33102835 -9.1875 1 C-8.10855469 0.814375 -7.02960938 0.62875 -5.91796875 0.4375 C-3 0 -3 0 0 0 Z " fill="#F1EFF2" transform="translate(153,125)"/>
<path d="M0 0 C5.18360041 5.05068758 6.08234435 10.8186574 7 17.6875 C7.68124896 22.54188547 8.38871633 27.3286229 9.51953125 32.1015625 C10.71398195 37.2722245 10.57162899 42.076905 10.4375 47.375 C4.0025 47.87 4.0025 47.87 -2.5625 48.375 C-5.00208011 36.75795188 -6.88061337 25.12434986 -8.5625 13.375 C-12.18180698 12.16856434 -14.75481005 12.05231441 -18.5625 12.375 C-21.9457553 14.2396306 -21.9457553 14.2396306 -24.5625 16.375 C-24.0472946 20.69172101 -23.48213508 24.9901712 -22.80859375 29.28515625 C-22.61040039 30.55262695 -22.61040039 30.55262695 -22.40820312 31.84570312 C-22.13537235 33.57798272 -21.85931341 35.30975687 -21.58007812 37.04101562 C-20.82861269 41.88667204 -20.40947843 46.47165663 -20.5625 51.375 C-25.46837458 52.97691823 -29.33814767 53.4753477 -34.5625 53.375 C-34.72854736 52.19695801 -34.72854736 52.19695801 -34.89794922 50.99511719 C-35.40959646 47.37152599 -35.92353609 43.7482633 -36.4375 40.125 C-36.61152344 38.89007813 -36.78554688 37.65515625 -36.96484375 36.3828125 C-37.93084528 29.58502395 -38.96038443 22.80738819 -40.13867188 16.04296875 C-40.80643874 11.83942251 -41.20604698 7.6149149 -41.5625 3.375 C-39.62744977 3.12599354 -37.68924066 2.90143758 -35.75 2.6875 C-34.67105469 2.55988281 -33.59210938 2.43226562 -32.48046875 2.30078125 C-29.5625 2.375 -29.5625 2.375 -27.67578125 3.85546875 C-27.30839844 4.35691406 -26.94101562 4.85835938 -26.5625 5.375 C-26.01980469 4.95347656 -25.47710937 4.53195313 -24.91796875 4.09765625 C-24.20253906 3.54980469 -23.48710937 3.00195312 -22.75 2.4375 C-22.04230469 1.89222656 -21.33460938 1.34695312 -20.60546875 0.78515625 C-14.79511699 -3.22543072 -6.19568038 -2.82609982 0 0 Z " fill="#F1EFF2" transform="translate(353.5625,115.625)"/>
<path d="M0 0 C0.87011719 0.00902344 1.74023438 0.01804688 2.63671875 0.02734375 C4.7579342 0.05065381 6.87900562 0.08651421 9 0.125 C9.495 4.085 9.495 4.085 10 8.125 C2.65926595 9.92898256 -4.47574418 11.40840421 -12 12.125 C-13.33850253 12.43692928 -14.67371871 12.76462958 -16 13.125 C-15.34 15.435 -14.68 17.745 -14 20.125 C-13.03960815 20.10143433 -13.03960815 20.10143433 -12.05981445 20.07739258 C-9.14413369 20.01482885 -6.22859445 19.97594192 -3.3125 19.9375 C-2.30509766 19.91236328 -1.29769531 19.88722656 -0.25976562 19.86132812 C9.17232535 19.76794109 9.17232535 19.76794109 13 23.125 C16.65307626 29.0455029 16.74179058 35.29474647 16 42.125 C14.71407647 45.67837323 14.03955242 46.10082907 10.625 48.1875 C-0.12039822 53.05951747 -10.43672451 53.5212036 -22 53.125 C-22.33 50.155 -22.66 47.185 -23 44.125 C-20.79076213 43.02038106 -19.27527051 42.8742139 -16.82421875 42.66015625 C-15.99599609 42.58216797 -15.16777344 42.50417969 -14.31445312 42.42382812 C-12.575122 42.26735298 -10.83553747 42.11366753 -9.09570312 41.96289062 C-4.73426433 41.54735463 -0.98938067 41.09090099 3 39.125 C3.04254356 37.12545254 3.04080783 35.12458364 3 33.125 C1.50256881 31.62756881 0.01175761 31.79297307 -2.0625 31.5625 C-3.361875 31.418125 -4.66125 31.27375 -6 31.125 C-6 31.785 -6 32.445 -6 33.125 C-8.22808159 33.23353983 -10.45769932 33.31083307 -12.6875 33.375 C-13.92886719 33.42140625 -15.17023438 33.4678125 -16.44921875 33.515625 C-20.595208 33.05952057 -22.09620875 32.04983322 -25 29.125 C-28.61185522 23.14675687 -28.8700405 16.99734239 -28 10.125 C-25.63589441 5.66957023 -22.61406475 3.9883723 -18 2.125 C-11.85012761 0.27869552 -6.39839861 -0.1277714 0 0 Z " fill="#F1EDF0" transform="translate(215,134.875)"/>
<path d="M0 0 C5.6642234 6.90327227 6.35906746 14.95986914 6.28515625 23.5546875 C5.81764526 28.28103151 3.67013806 30.75903208 0.43359375 34.01171875 C-3.25106099 36.17046511 -6.98657427 36.30469766 -11.1875 36.6875 C-12.01958984 36.77773437 -12.85167969 36.86796875 -13.70898438 36.9609375 C-15.80134031 37.17238993 -17.9007845 37.31116807 -20 37.4375 C-22.71261773 34.72488227 -22.28358896 28.05149365 -22.78442383 24.35644531 C-23.05864755 22.34081672 -23.34228739 20.32667698 -23.62695312 18.3125 C-23.89088867 16.39050781 -23.89088867 16.39050781 -24.16015625 14.4296875 C-24.32136963 13.25776855 -24.48258301 12.08584961 -24.64868164 10.87841797 C-25.006577 7.37308292 -25.06033868 3.95847238 -25 0.4375 C-6.75061472 -3.51594517 -6.75061472 -3.51594517 0 0 Z " fill="#F1EAEE" transform="translate(92,95.5625)"/>
<path d="M0 0 C2.44921875 0.421875 2.44921875 0.421875 5.51171875 2.671875 C8.94422176 7.54381476 8.69092986 12.39550192 8.76171875 18.171875 C8.79072266 18.9453125 8.81972656 19.71875 8.84960938 20.515625 C8.92233618 27.18411395 7.08021188 32.30366092 2.76171875 37.421875 C-0.9995579 39.04837301 -4.54588388 39.31423181 -8.55078125 38.421875 C-12.02822154 35.89357135 -13.76363086 32.59668016 -14.55078125 28.421875 C-14.81353285 25.30002361 -14.82747577 22.17866131 -14.86328125 19.046875 C-14.89228516 18.20898438 -14.92128906 17.37109375 -14.95117188 16.5078125 C-15.00804816 10.9426869 -14.2510448 7.8355227 -10.55078125 3.421875 C-10.07382812 2.8134375 -9.596875 2.205 -9.10546875 1.578125 C-6.3016116 -0.50715569 -3.36832945 -0.09834539 0 0 Z " fill="#F0E5E8" transform="translate(303.55078125,182.578125)"/>
<path d="M0 0 C0.84304688 -0.04253906 1.68609375 -0.08507812 2.5546875 -0.12890625 C5.60049908 0.69040781 7.254244 1.97710291 9.15234375 4.49633789 C11.234936 8.9202782 10.79451871 13.77268964 10.6875 18.5625 C10.69845703 19.62984375 10.70941406 20.6971875 10.72070312 21.796875 C10.6629543 27.98754931 10.34421593 31.90681346 6.125 36.5625 C3.0171891 38.63437393 1.8599703 38.95492541 -1.75 39.125 C-2.59304688 39.18816406 -3.43609375 39.25132812 -4.3046875 39.31640625 C-7.59525954 38.35123846 -9.06582912 36.64002713 -10.90234375 33.79321289 C-12.77998672 29.48698202 -12.55193555 25.12381461 -12.4375 20.5 C-12.44845703 19.53255859 -12.45941406 18.56511719 -12.47070312 17.56835938 C-12.41072027 11.72602974 -11.82012195 8.15201573 -7.875 3.5625 C-7.39804687 2.95535156 -6.92109375 2.34820312 -6.4296875 1.72265625 C-4.26668251 0.10855453 -2.67880713 0.06106703 0 0 Z " fill="#EFDDE0" transform="translate(357.875,173.4375)"/>
<path d="M0 0 C0.10546143 0.69859131 0.21092285 1.39718262 0.31958008 2.11694336 C0.81507991 5.3907911 1.31331076 8.66421274 1.8125 11.9375 C2.08271973 13.71120972 2.08271973 13.71120972 2.35839844 15.52075195 C3.59257636 23.54782331 4.95284962 31.53638179 6.484375 39.51171875 C7.0088747 43.06003869 7.09194758 46.41864171 7 50 C2.23013567 50.95397287 -2.16144615 51.03998805 -7 51 C-7.25651042 49.4609375 -7.51302083 47.921875 -7.76953125 46.3828125 C-7.93485352 45.39144287 -8.10017578 44.40007324 -8.27050781 43.37866211 C-8.63387603 41.19730705 -8.99649804 39.01582757 -9.35839844 36.83422852 C-10.19974882 31.76788453 -11.04667998 26.7031176 -11.93359375 21.64453125 C-12.07240967 20.84321777 -12.21122559 20.0419043 -12.35424805 19.21630859 C-12.61008644 17.74314664 -12.87036296 16.27074552 -13.13598633 14.79931641 C-13.87906535 10.48664613 -14.11372141 6.37258803 -14 2 C-9.04726253 0.01890501 -5.23859642 -0.08658837 0 0 Z " fill="#F1EDF0" transform="translate(177,141)"/>
<path d="M0 0 C0.11593506 0.74685059 0.23187012 1.49370117 0.35131836 2.26318359 C0.87660077 5.6343364 1.40698461 9.00466692 1.9375 12.375 C2.11990234 13.550625 2.30230469 14.72625 2.49023438 15.9375 C2.66748047 17.05898437 2.84472656 18.18046875 3.02734375 19.3359375 C3.18968506 20.37282715 3.35202637 21.4097168 3.51928711 22.47802734 C3.87841872 24.98336482 3.87841872 24.98336482 5 27 C6.41660319 34.61424213 7.30956824 42.29017864 8 50 C3.05 50.33 -1.9 50.66 -7 51 C-13.00022845 13.89179104 -13.00022845 13.89179104 -14 1 C-9.26053768 0.34628106 -4.7909033 -0.02295043 0 0 Z " fill="#F1ECF0" transform="translate(248,130)"/>
<path d="M0 0 C2.75 2.0625 2.75 2.0625 4 5 C4.72296267 10.99026214 4.72296267 10.99026214 2.828125 13.63671875 C0.38842547 15.45606733 -1.69410992 15.7296874 -4.6875 16.1875 C-5.68136719 16.34605469 -6.67523438 16.50460938 -7.69921875 16.66796875 C-8.45847656 16.77753906 -9.21773437 16.88710937 -10 17 C-9.67 18.65 -9.34 20.3 -9 22 C-4.38 21.67 0.24 21.34 5 21 C5 22.32 5 23.64 5 25 C-0.55661131 27.89910155 -5.72500082 29.07211041 -12 28 C-16.16218882 25.58874979 -17.14510608 22.99749985 -18.453125 18.54296875 C-19.36469048 14.30418926 -19.82277615 10.28591576 -19 6 C-13.75764807 -0.75987485 -8.14806119 -0.96577837 0 0 Z " fill="#F0E4E8" transform="translate(190,88)"/>
<path d="M0 0 C5.12998267 5.12998267 5.23595817 10.02262793 5.375 17 C5.41238281 17.7115625 5.44976562 18.423125 5.48828125 19.15625 C5.55207823 22.9557147 5.3379795 24.63113616 2.734375 27.47265625 C-1.32475902 29.73997254 -3.40128821 29.5192094 -8 29 C-11.920968 25.91188678 -13.03297119 21.74304606 -14 17 C-15.02683655 4.39044722 -15.02683655 4.39044722 -12.62109375 1.1328125 C-8.70197864 -1.60584625 -4.42777628 -1.31891208 0 0 Z " fill="#E10815" transform="translate(288,135)"/>
<path d="M0 0 C2.05599937 3.83163518 2.14108115 7.31276562 1.375 11.5625 C-0.45014916 14.10183797 -1.86832973 14.43356651 -4.89453125 14.94921875 C-7.1384869 15.22132046 -9.36931652 15.42272474 -11.625 15.5625 C-10.965 16.8825 -10.305 18.2025 -9.625 19.5625 C-5.335 19.5625 -1.045 19.5625 3.375 19.5625 C3.045 21.2125 2.715 22.8625 2.375 24.5625 C-3.57973163 26.26586295 -9.5945961 27.64111618 -15.625 25.5625 C-20.65071631 20.03421206 -20.98501537 14.11718779 -20.91015625 6.94140625 C-20.49562525 3.4831956 -19.23238751 1.80775036 -16.625 -0.4375 C-11.34290721 -2.17562455 -4.93514165 -2.70257757 0 0 Z " fill="#F1EBEE" transform="translate(122.625,100.4375)"/>
<path d="M0 0 C3.3508204 2.02812814 4.25383087 4.28342802 5.1875 7.9375 C6.31374697 13.89763882 6.64486479 19.95335583 7 26 C3.04 26.495 3.04 26.495 -1 27 C-1.99 21.06 -2.98 15.12 -4 9 C-8.60532389 7.54685336 -8.60532389 7.54685336 -11 9 C-11.07749896 13.57243893 -10.91858816 17.52188274 -10 22 C-9.96175377 24.33301986 -9.95425716 26.66711508 -10 29 C-12.31 29 -14.62 29 -17 29 C-17.67696772 26.00200008 -18.34175788 23.00211777 -19 20 C-19.19078125 19.16082031 -19.3815625 18.32164063 -19.578125 17.45703125 C-20.72368346 12.17927979 -21.1999931 7.3998138 -21 2 C-17.66666667 2 -14.33333333 2 -11 2 C-7.30405926 -0.46396049 -4.28892393 -0.66716594 0 0 Z " fill="#F0E8EB" transform="translate(162,92)"/>
<path d="M0 0 C3.0625 2.0625 3.0625 2.0625 5 5 C5.57472081 9.02304567 5.34750853 11.25759541 3.625 14.9375 C3.08875 15.618125 2.5525 16.29875 2 17 C1.34 17 0.68 17 0 17 C0 17.66 0 18.32 0 19 C0.61875 19.268125 1.2375 19.53625 1.875 19.8125 C4 21 4 21 6 24 C5.8167674 29.68021065 5.21357827 32.90680968 1 37 C-2.06038518 39.29528889 -5.24869429 39.42226135 -9.03125 39.31640625 C-12.2570006 38.79798205 -13.86426719 37.39460951 -16 35 C-16.8125 32.25 -16.8125 32.25 -17 30 C-15.35 30 -13.7 30 -12 30 C-11.67 31.32 -11.34 32.64 -11 34 C-5.99406458 34.41953254 -5.99406458 34.41953254 -1.5625 32.375 C0.42769679 29.34990088 0.46382725 27.55600891 0 24 C-3.00617269 20.99382731 -5.82381598 21.40414684 -10 21 C-10 19.68 -10 18.36 -10 17 C-8.88625 16.71125 -7.7725 16.4225 -6.625 16.125 C-2.99708908 15.30758671 -2.99708908 15.30758671 -1 13 C-0.74996036 9.45821402 -0.74996036 9.45821402 -1 6 C-2.10528442 4.68031822 -2.10528442 4.68031822 -4.875 4.75 C-7.93566141 4.73262407 -7.93566141 4.73262407 -9.8125 6.25 C-11.11258722 8.16591802 -11.60856977 9.72970466 -12 12 C-13.65 12 -15.3 12 -17 12 C-16.89994233 7.79757783 -15.96110316 5.49720168 -13 2.625 C-8.88144663 -0.58679368 -5.06277236 -1.24913262 0 0 Z " fill="#F0E7EA" transform="translate(334,178)"/>
<path d="M0 0 C2.54687262 1.07236742 3.67192968 1.84707341 5.375 4 C6.0364518 7.59260623 5.8843868 11.22822823 5.875 14.875 C5.90335937 15.86886719 5.93171875 16.86273438 5.9609375 17.88671875 C5.97391151 22.73250988 5.97988406 25.19248977 3.0078125 29.16015625 C0.375 31 0.375 31 -2.25 31.5625 C-4.625 31 -4.625 31 -6.24414062 29.27905273 C-8.72141165 25.19041677 -8.13710635 20.72647027 -8.125 16.0625 C-8.15335937 15.07314453 -8.18171875 14.08378906 -8.2109375 13.06445312 C-8.22396565 8.22123729 -8.20991486 5.78857333 -5.2578125 1.80859375 C-2.625 0 -2.625 0 0 0 Z " fill="#E10916" transform="translate(301.625,186)"/>
<path d="M0 0 C3.5 0.5625 3.5 0.5625 5.1953125 2.5390625 C6.9538458 6.6142265 6.93950449 10.11011094 6.875 14.5 C6.88660156 15.28568359 6.89820313 16.07136719 6.91015625 16.88085938 C6.8855202 21.78753859 6.36033699 25.3930843 3.5 29.5625 C-0.1875 30.4375 -0.1875 30.4375 -3.5 30.5625 C-6.19335163 27.48845948 -6.88270786 25.56873245 -6.8984375 21.5 C-6.90230469 20.53835937 -6.90617187 19.57671875 -6.91015625 18.5859375 C-6.89855469 17.58820313 -6.88695312 16.59046875 -6.875 15.5625 C-6.88660156 14.56476563 -6.89820313 13.56703125 -6.91015625 12.5390625 C-6.90628906 11.57742187 -6.90242188 10.61578125 -6.8984375 9.625 C-6.89505371 8.74972656 -6.89166992 7.87445313 -6.88818359 6.97265625 C-6.14681338 2.36963315 -4.56094556 0.73300911 0 0 Z " fill="#E10714" transform="translate(357.5,177.4375)"/>
<path d="M0 0 C2.36293002 1.15632746 4.14983755 2.14983755 6 4 C7.08416646 9.98755569 6.22337027 14.35725926 3 19.5 C-0.74204666 24.86436545 -4.80851228 29.98110172 -9 35 C-8.35933594 34.855625 -7.71867187 34.71125 -7.05859375 34.5625 C-1.91959623 33.45964509 2.74695843 32.77160689 8 33 C8 34.32 8 35.64 8 37 C0.34800303 38.23535374 -7.27577951 39.33742578 -15 40 C-15.35864791 35.74960091 -14.57834702 33.82407155 -12.0078125 30.4609375 C-11.38519531 29.63335937 -10.76257813 28.80578125 -10.12109375 27.953125 C-9.46238281 27.10234375 -8.80367188 26.2515625 -8.125 25.375 C-6.83570163 23.67465799 -5.54662947 21.97414443 -4.2578125 20.2734375 C-3.6817627 19.52497559 -3.10571289 18.77651367 -2.51220703 18.00537109 C0.48183891 14.03490074 1.4251606 11.99563708 1 7 C-0.87938172 4.70172688 -0.87938172 4.70172688 -3.9375 4.6875 C-6.93011819 4.75548687 -6.93011819 4.75548687 -8.8125 6.1875 C-10.27538036 8.42031739 -10.64505955 10.37344067 -11 13 C-12.65 13 -14.3 13 -16 13 C-15.932206 9.61030005 -15.72769101 6.97519057 -13.65625 4.19921875 C-9.18001628 -0.06337654 -6.08738863 -0.88365319 0 0 Z " fill="#F0E6E9" transform="translate(276,187)"/>
<path d="M0 0 C9.84121223 -0.91625079 9.84121223 -0.91625079 13.6875 2.125 C16.29008415 7.39364596 15.60647959 14.32306899 15 20 C13 23 13 23 10 24 C7.66700175 24.03954234 5.33291811 24.04401732 3 24 C1.69225335 16.01385781 0.61458229 8.0704358 0 0 Z " fill="#E10916" transform="translate(75,101)"/>
<path d="M0 0 C0.5055539 3.56173477 1.00346114 7.12449819 1.5 10.6875 C1.64308594 11.69490234 1.78617188 12.70230469 1.93359375 13.74023438 C2.06894531 14.71669922 2.20429688 15.69316406 2.34375 16.69921875 C2.46943359 17.59471436 2.59511719 18.49020996 2.72460938 19.4128418 C2.99616516 21.96397361 3.04847897 24.4366743 3 27 C0.69 27 -1.62 27 -4 27 C-4.67753232 24.16888282 -5.34218727 21.33570624 -6 18.5 C-6.19078125 17.70851563 -6.3815625 16.91703125 -6.578125 16.1015625 C-7.76334941 10.93737043 -8.19441282 6.29774939 -8 1 C-5.07175348 0.02391783 -3.04386724 -0.08226668 0 0 Z " fill="#F0E7EA" transform="translate(136,96)"/>
<path d="M0 0 C0.33 4.29 0.66 8.58 1 13 C-3.62 13.33 -8.24 13.66 -13 14 C-14.00496852 10.98509443 -14.10335303 8.95818308 -14.0625 5.8125 C-14.05347656 4.91144531 -14.04445312 4.01039062 -14.03515625 3.08203125 C-14.02355469 2.39496094 -14.01195312 1.70789063 -14 1 C-9.29654425 -0.21379503 -4.82569313 -0.07202527 0 0 Z " fill="#F1ECEF" transform="translate(174,121)"/>
<path d="M0 0 C0.89203125 0.00902344 1.7840625 0.01804687 2.703125 0.02734375 C3.37859375 0.03894531 4.0540625 0.05054687 4.75 0.0625 C5.73248524 4.1152516 5.83159574 7.90111737 5.75 12.0625 C-3.66002278 14.54313781 -3.66002278 14.54313781 -8.25 13.0625 C-9.21070434 10.18038698 -9.35581883 8.36399956 -9.3125 5.375 C-9.30347656 4.56675781 -9.29445312 3.75851563 -9.28515625 2.92578125 C-9.27355469 2.31089844 -9.26195312 1.69601563 -9.25 1.0625 C-6.09493858 0.12630187 -3.28413498 -0.0432123 0 0 Z " fill="#F1EDF0" transform="translate(240.25,109.9375)"/>
<path d="M0 0 C0.86109375 -0.06058594 1.7221875 -0.12117187 2.609375 -0.18359375 C5.72999547 0.55039834 7.37061313 1.77694165 9.29931641 4.34057617 C11.35667027 8.87848381 10.74914133 13.93685422 10.5625 18.8125 C10.53994141 19.93011719 10.51738281 21.04773438 10.49414062 22.19921875 C10.43543378 24.9466989 10.35336846 27.69139761 10.25 30.4375 C8.93 30.1075 7.61 29.7775 6.25 29.4375 C6.23018066 28.85258789 6.21036133 28.26767578 6.18994141 27.66503906 C6.09446519 25.00541975 5.98487858 22.34656162 5.875 19.6875 C5.8440625 18.76710937 5.813125 17.84671875 5.78125 16.8984375 C5.74257813 16.00898438 5.70390625 15.11953125 5.6640625 14.203125 C5.6326416 13.38618164 5.6012207 12.56923828 5.56884766 11.72753906 C5.21780234 9.20624884 4.66628784 7.55332842 3.25 5.4375 C0.22065509 4.77977572 0.22065509 4.77977572 -2.75 4.4375 C-3.08 3.7775 -3.41 3.1175 -3.75 2.4375 C-4.41 2.1075 -5.07 1.7775 -5.75 1.4375 C-4.10710804 -0.20539196 -2.26039721 0.11034483 0 0 Z " fill="#F1F1F4" transform="translate(357.75,173.5625)"/>
<path d="M0 0 C0.66 0.33 1.32 0.66 2 1 C2.29922513 4.31799001 2.4156556 7.59328715 2.47851562 10.921875 C2.64746632 15.40524965 3.05080953 18.53306276 6 22 C8.23837799 23.01674712 8.23837799 23.01674712 10.6875 23.3125 C11.49574219 23.45300781 12.30398438 23.59351563 13.13671875 23.73828125 C13.75160156 23.82464844 14.36648438 23.91101563 15 24 C13 27 13 27 11.01171875 27.50390625 C9.86123047 27.53291016 9.86123047 27.53291016 8.6875 27.5625 C7.92824219 27.60503906 7.16898437 27.64757812 6.38671875 27.69140625 C3.43535975 26.83642991 1.82860952 25.39359884 -0.02514648 22.96313477 C-1.96043045 19.06591003 -1.55183204 14.94061538 -1.375 10.6875 C-1.36082031 9.76904297 -1.34664063 8.85058594 -1.33203125 7.90429688 C-1.18300028 1.18300028 -1.18300028 1.18300028 0 0 Z " fill="#F0E8EB" transform="translate(291,194)"/>
<path d="M0 0 C0.33 0 0.66 0 1 0 C1.10901505 2.83439137 1.18777904 5.66450203 1.25 8.5 C1.30027344 9.68722656 1.30027344 9.68722656 1.3515625 10.8984375 C1.44679049 16.70734501 0.37552586 21.18669266 -3 26 C-3.66 26.33 -4.32 26.66 -5 27 C-6.32 26.01 -7.64 25.02 -9 24 C-8.03320312 23.29617187 -8.03320312 23.29617187 -7.046875 22.578125 C-4.06409117 18.82118353 -4.33030605 15.42235173 -4.25 10.75 C-4.22035156 9.90953125 -4.19070313 9.0690625 -4.16015625 8.203125 C-4.08968364 6.1359285 -4.04255061 4.06795967 -4 2 C-3.01 2.99 -2.02 3.98 -1 5 C-0.67 3.35 -0.34 1.7 0 0 Z " fill="#EED0D5" transform="translate(311,192)"/>
<path d="M0 0 C0.33 0.99 0.66 1.98 1 3 C0.53980469 3.52078125 0.07960938 4.0415625 -0.39453125 4.578125 C-2.90591134 8.36658158 -2.57241098 12.29769902 -2.6875 16.75 C-2.72166016 17.63816406 -2.75582031 18.52632812 -2.79101562 19.44140625 C-2.87328714 21.62747803 -2.94250172 23.81315951 -3 26 C-3.33 26 -3.66 26 -4 26 C-4 20.72 -4 15.44 -4 10 C-4.66 10 -5.32 10 -6 10 C-6.33 16.6 -6.66 23.2 -7 30 C-7.33 30 -7.66 30 -8 30 C-8.11681812 26.45861382 -8.187455 22.9177276 -8.25 19.375 C-8.28351563 18.37597656 -8.31703125 17.37695312 -8.3515625 16.34765625 C-8.43268141 10.22317862 -8.14550963 6.63321665 -4 2 C-1.75 0.625 -1.75 0.625 0 0 Z " fill="#EECED2" transform="translate(354,175)"/>
<path d="M0 0 C0.99 0.33 1.98 0.66 3 1 C3.16743748 4.45829647 3.33381921 7.91664293 3.5 11.375 C3.54769531 12.35984375 3.59539062 13.3446875 3.64453125 14.359375 C3.71220703 15.77089844 3.71220703 15.77089844 3.78125 17.2109375 C3.82314453 18.08024902 3.86503906 18.94956055 3.90820312 19.84521484 C3.96716394 21.22922588 4 22.61473363 4 24 C4.33 24.66 4.66 25.32 5 26 C1.125 24.25 1.125 24.25 0 22 C-0.08426094 20.3325394 -0.10725143 18.66174813 -0.09765625 16.9921875 C-0.09443359 16.00605469 -0.09121094 15.01992187 -0.08789062 14.00390625 C-0.07951172 12.97136719 -0.07113281 11.93882812 -0.0625 10.875 C-0.05798828 9.83472656 -0.05347656 8.79445312 -0.04882812 7.72265625 C-0.03701952 5.14838038 -0.02055075 2.57421854 0 0 Z " fill="#F2FAFC" transform="translate(347,184)"/>
<path d="M0 0 C0 0.33 0 0.66 0 1 C-2.31 1 -4.62 1 -7 1 C-6.67 1.99 -6.34 2.98 -6 4 C-6.639375 4.556875 -7.27875 5.11375 -7.9375 5.6875 C-10.19680987 8.22066561 -10.63149047 9.68341424 -11 13 C-12.65 13 -14.3 13 -16 13 C-15.932206 9.61030005 -15.72769101 6.97519057 -13.65625 4.19921875 C-9.17566004 -0.06752487 -6.07682557 -0.63966585 0 0 Z " fill="#EFDBDF" transform="translate(276,187)"/>
<path d="M0 0 C4.8044072 0.02061977 4.8044072 0.02061977 7.8125 2.3125 C8.26625 2.9725 8.72 3.6325 9.1875 4.3125 C8.5275 6.2925 7.8675 8.2725 7.1875 10.3125 C5.1875 9.3125 5.1875 9.3125 4.4375 7.3125 C3.81875 6.3225 3.81875 6.3225 3.1875 5.3125 C0.15815509 4.65477572 0.15815509 4.65477572 -2.8125 4.3125 C-3.1425 3.6525 -3.4725 2.9925 -3.8125 2.3125 C-4.4725 1.9825 -5.1325 1.6525 -5.8125 1.3125 C-4.16284831 -0.33715169 -2.2648645 0.06300502 0 0 Z " fill="#F0E5E9" transform="translate(357.8125,173.6875)"/>
<path d="M0 0 C0.33 2.31 0.66 4.62 1 7 C-5.15234375 7.87890625 -5.15234375 7.87890625 -7 8 C-8 7 -8 7 -8.0625 3.9375 C-8.041875 2.968125 -8.02125 1.99875 -8 1 C-5.29120665 -0.35439668 -2.99066732 -0.06501451 0 0 Z " fill="#F0E1E4" transform="translate(134,85)"/>
<path d="M0 0 C0.66 0 1.32 0 2 0 C2.29162929 4.95769796 2.12940055 8.02806853 -1 12 C-1.66 12 -2.32 12 -3 12 C-3 12.66 -3 13.32 -3 14 C-6.3 13.67 -9.6 13.34 -13 13 C-13 12.67 -13 12.34 -13 12 C-11.88625 11.71125 -10.7725 11.4225 -9.625 11.125 C-5.99708908 10.30758671 -5.99708908 10.30758671 -4 8 C-3.60235737 6.01178687 -3.26224651 4.01055661 -3 2 C-2.67 2 -2.34 2 -2 2 C-1.67 3.65 -1.34 5.3 -1 7 C-0.67 4.69 -0.34 2.38 0 0 Z " fill="#EFD5D9" transform="translate(337,183)"/>
<path d="M0 0 C-0.33 7.26 -0.66 14.52 -1 22 C-1.33 22 -1.66 22 -2 22 C-2.33 16.72 -2.66 11.44 -3 6 C-3.33 6 -3.66 6 -4 6 C-4.33 11.28 -4.66 16.56 -5 22 C-5.33 22 -5.66 22 -6 22 C-6.02895976 18.87501937 -6.04678483 15.7500731 -6.0625 12.625 C-6.07087891 11.73554688 -6.07925781 10.84609375 -6.08789062 9.9296875 C-6.09111328 9.07890625 -6.09433594 8.228125 -6.09765625 7.3515625 C-6.10289307 6.56604004 -6.10812988 5.78051758 -6.11352539 4.97119141 C-6 3 -6 3 -5 1 C-2 0 -2 0 0 0 Z " fill="#EEC8CD" transform="translate(295,189)"/>
<path d="M0 0 C1.65 0 3.3 0 5 0 C5.33 1.32 5.66 2.64 6 4 C8.97 4.495 8.97 4.495 12 5 C10.68 5.33 9.36 5.66 8 6 C8 6.66 8 7.32 8 8 C9.98 8 11.96 8 14 8 C14 8.33 14 8.66 14 9 C6.8444694 9.48512072 6.8444694 9.48512072 3.0625 7.3125 C0.81096104 4.78804723 0.27746492 3.32957907 0 0 Z " fill="#EFDADD" transform="translate(317,208)"/>
<path d="M0 0 C1.134375 0.020625 2.26875 0.04125 3.4375 0.0625 C3.7675 1.7125 4.0975 3.3625 4.4375 5.0625 C-1.1875 7.0625 -1.1875 7.0625 -4.5625 7.0625 C-4.60504356 5.06295254 -4.60330783 3.06208364 -4.5625 1.0625 C-3.5625 0.0625 -3.5625 0.0625 0 0 Z " fill="#E21C26" transform="translate(113.5625,104.9375)"/>
<path d="M0 0 C0.6875 1.8125 0.6875 1.8125 1 4 C-0.375 5.5 -0.375 5.5 -2 7 C-2.71447643 9.10332891 -2.71447643 9.10332891 -3 11 C-4.65 11 -6.3 11 -8 11 C-7.71915428 6.97454466 -7.21634296 5.25517374 -4.5625 2.125 C-2 0 -2 0 0 0 Z " fill="#F0E0E3" transform="translate(325,179)"/>
<path d="M0 0 C1.4540625 0.0309375 1.4540625 0.0309375 2.9375 0.0625 C3.31968767 1.71864657 3.65145102 3.38707024 3.9375 5.0625 C2.9375 6.0625 2.9375 6.0625 -0.625 6.125 C-1.759375 6.104375 -2.89375 6.08375 -4.0625 6.0625 C-4.105221 4.39638095 -4.10313832 2.72867115 -4.0625 1.0625 C-3.0625 0.0625 -3.0625 0.0625 0 0 Z " fill="#E10813" transform="translate(183.0625,93.9375)"/>
<path d="M0 0 C0.66 0.33 1.32 0.66 2 1 C2 5.62 2 10.24 2 15 C1.01 15.33 0.02 15.66 -1 16 C-1.02685095 13.52076199 -1.04676547 11.0418116 -1.0625 8.5625 C-1.07506836 7.50192383 -1.07506836 7.50192383 -1.08789062 6.41992188 C-1.09653588 4.61306441 -1.05220011 2.80612397 -1 1 C-0.67 0.67 -0.34 0.34 0 0 Z " fill="#F2FAFC" transform="translate(291,194)"/>
<path d="M0 0 C2.3797234 3.56958511 2.29830341 5.32718302 2.3125 9.5625 C2.33763672 11.29693359 2.33763672 11.29693359 2.36328125 13.06640625 C2.18345703 14.51853516 2.18345703 14.51853516 2 16 C1.01 16.66 0.02 17.32 -1 18 C-1.33 12.39 -1.66 6.78 -2 1 C-1.34 0.67 -0.68 0.34 0 0 Z " fill="#F2FAFC" transform="translate(309,189)"/>
<path d="M0 0 C0.33 0 0.66 0 1 0 C1 2.64 1 5.28 1 8 C1.66 8 2.32 8 3 8 C3 10.33333333 3 12.66666667 3 15 C3.33 15.66 3.66 16.32 4 17 C2.0625 16.3125 2.0625 16.3125 0 15 C-1.90460088 10.31175168 -0.61737707 4.89152605 0 0 Z " fill="#F1F1F3" transform="translate(348,193)"/>
<path d="M0 0 C0.66 0.33 1.32 0.66 2 1 C1.51917969 1.55171875 1.03835937 2.1034375 0.54296875 2.671875 C-1.23954161 5.36143493 -1.47751409 7.05821418 -1.6875 10.25 C-1.78611328 11.58804688 -1.78611328 11.58804688 -1.88671875 12.953125 C-1.94279297 13.96632813 -1.94279297 13.96632813 -2 15 C-2.66 15 -3.32 15 -4 15 C-4.63019694 5.98468271 -4.63019694 5.98468271 -2 1.875 C-1.34 1.25625 -0.68 0.6375 0 0 Z " fill="#F0DDE1" transform="translate(106,100)"/>
<path d="M0 0 C0.4125 0.45375 0.825 0.9075 1.25 1.375 C3.06408095 3.05950374 4.75285627 3.99265971 7 5 C5.8125 6.5625 5.8125 6.5625 4 8 C1.3125 7.6875 1.3125 7.6875 -1 7 C-1 6.01 -1 5.02 -1 4 C-1.33 3.34 -1.66 2.68 -2 2 C-1.34 2 -0.68 2 0 2 C0 1.34 0 0.68 0 0 Z " fill="#EFD6DA" transform="translate(351,204)"/>
<path d="M0 0 C2.0625 1.75 2.0625 1.75 4 4 C3.75 6.25 3.75 6.25 3 8 C-2.875 4.25 -2.875 4.25 -4 2 C-2.68 1.34 -1.36 0.68 0 0 Z " fill="#EFD4D8" transform="translate(307,184)"/>
<path d="M0 0 C2.4375 0.375 2.4375 0.375 5 1 C6.6415049 4.2830098 5.51888624 7.42545033 5 11 C3 10 3 10 2.1484375 7.71484375 C1.89320313 6.79832031 1.63796875 5.88179687 1.375 4.9375 C1.11460937 4.01839844 0.85421875 3.09929687 0.5859375 2.15234375 C0.39257812 1.44207031 0.19921875 0.73179687 0 0 Z " fill="#F1F5F7" transform="translate(332,180)"/>
<path d="M0 0 C-0.33 2.97 -0.66 5.94 -1 9 C-1.66 8.67 -2.32 8.34 -3 8 C-3.625 5.4375 -3.625 5.4375 -4 3 C-6.97 2.505 -6.97 2.505 -10 2 C-10 1.67 -10 1.34 -10 1 C-3.375 0 -3.375 0 0 0 Z " fill="#EECFD3" transform="translate(153,125)"/>
<path d="M0 0 C1.98 0 3.96 0 6 0 C6.33 2.31 6.66 4.62 7 7 C4.69 6.67 2.38 6.34 0 6 C0.8125 4.0625 0.8125 4.0625 2 2 C2.99 1.67 3.98 1.34 5 1 C3.35 1 1.7 1 0 1 C0 0.67 0 0.34 0 0 Z " fill="#EEC9CE" transform="translate(128,85)"/>
<path d="M0 0 C2.64 0 5.28 0 8 0 C8.33 1.32 8.66 2.64 9 4 C8.34 3.67 7.68 3.34 7 3 C4.6670134 2.95977609 2.33293334 2.95679753 0 3 C0 2.01 0 1.02 0 0 Z " fill="#F1F6F9" transform="translate(298,183)"/>
<path d="M0 0 C-1.75 4.875 -1.75 4.875 -4 6 C-5.32 5.01 -6.64 4.02 -8 3 C-5.53387212 -0.1151089 -3.89156016 -0.31553191 0 0 Z " fill="#EFDDE0" transform="translate(310,213)"/>
<path d="M0 0 C0.66 0.66 1.32 1.32 2 2 C-0.52475462 3.26237731 -2.31200466 3.09856404 -5.125 3.0625 C-6.03507812 3.05347656 -6.94515625 3.04445312 -7.8828125 3.03515625 C-8.58148438 3.02355469 -9.28015625 3.01195312 -10 3 C-6.50437088 0.13237352 -4.57570643 -0.49735939 0 0 Z " fill="#F2F8FA" transform="translate(274,222)"/>
<path d="M0 0 C0 0.66 0 1.32 0 2 C-3.21451269 3.60725635 -6.43612536 3.05748185 -10 3 C-10 2.34 -10 1.68 -10 1 C-6.61981469 -0.04005702 -3.5219721 -0.08004482 0 0 Z " fill="#F1F1F4" transform="translate(335,213)"/>
<path d="M0 0 C0 1.65 0 3.3 0 5 C-1.65 5 -3.3 5 -5 5 C-5 3.68 -5 2.36 -5 1 C-3 0 -3 0 0 0 Z " fill="#EFD7DB" transform="translate(322,185)"/>
<path d="M0 0 C0 1.32 0 2.64 0 4 C-1.98 4 -3.96 4 -6 4 C-6 3.01 -6 2.02 -6 1 C-3 0 -3 0 0 0 Z " fill="#F1EDF0" transform="translate(361,208)"/>
<path d="M0 0 C0.66 0 1.32 0 2 0 C2.33 1.65 2.66 3.3 3 5 C1.68 5.33 0.36 5.66 -1 6 C-1.042721 4.33388095 -1.04063832 2.66617115 -1 1 C-0.67 0.67 -0.34 0.34 0 0 Z " fill="#F1F0F3" transform="translate(291,209)"/>
<path d="M0 0 C-2.55991624 2.01136276 -5.04590299 3.62845496 -8 5 C-8 3.68 -8 2.36 -8 1 C-5.29120665 -0.35439668 -2.99066732 -0.06501451 0 0 Z " fill="#EDB6BC" transform="translate(200,178)"/>
<path d="M0 0 C3.94727588 -0.17942163 6.5980513 -0.09350689 10 2 C9 3 9 3 6.125 3.25 C3 3 3 3 1.125 1.5 C0.75375 1.005 0.3825 0.51 0 0 Z " fill="#F2F9FB" transform="translate(179,101)"/>
</svg>
